<?xml version="1.0" encoding="utf-8"?><svg viewBox="0 0 1297.87 278.73" xmlns="http://www.w3.org/2000/svg" xmlns:xlink="http://www.w3.org/1999/xlink"><style>:root>svg{display:none}:root>svg:target{display:block}</style><svg data-name="Слой 1" viewBox="0 0 30 30" id="icon-vk" xmlns="http://www.w3.org/2000/svg"><path class="acls-1" d="M28 0H2a2 2 0 00-2 2v26a2 2 0 002 2h26a2 2 0 002-2V2a2 2 0 00-2-2zm-4 17.44c1.78 1.67 2.22 2.56 2.22 2.67.67 1.33-1 1.44-1 1.44h-3a2.23 2.23 0 01-1.55-.44c-1.12-.78-2.23-2.78-3-2.56s-.78 2.11-.78 2.11 0 .45-.22.56a1.09 1.09 0 01-.66.22h-1.34A7.72 7.72 0 019 18.89c-2.89-3-5.45-9-5.45-9s-.11-.45 0-.56a1.13 1.13 0 01.67-.22h3.22a.88.88 0 01.56.22.82.82 0 01.33.34s.56 1.33 1.23 2.55c1.33 2.34 2 2.9 2.44 2.67.67-.33.45-3.33.45-3.33a3.44 3.44 0 00-.34-1.56c-.22-.33-.77-.44-1-.56s.11-.44.56-.66a6.72 6.72 0 012.89-.34 14.53 14.53 0 011.56.12c1.11.22.77 1.33.77 3.89 0 .78-.11 1.89.45 2.33.22.11.89 0 2.45-2.56a13 13 0 001.22-2.66.82.82 0 01.33-.34 1.13 1.13 0 01.45-.11h3.44s1-.11 1.23.33-.34 1.67-1.78 3.45c-2.34 3.1-2.56 2.77-.67 4.55z"/></svg><svg id="logo" viewBox="0 0 1297.87 278.73" xmlns="http://www.w3.org/2000/svg"><defs><style>.bcls-1{fill:#ffcf31}.bcls-2{isolation:isolate}</style></defs><path class="bcls-1" d="M-18.89 887.82c17.27-20.27 49.63-34.36 89.83-39.36.16 0 .41-.09.58-.09 1-.16 2-.25 3-.33.17 0 .42-.08.59-.08 1.08-.09 2.16-.25 3.25-.34l3-.25 2.75-.25c1.84-.17 3.76-.25 5.59-.33.92-.09 1.92-.09 2.84-.17s1.91-.08 2.91-.08c1.42-.09 2.76-.09 4.17-.09H107c1.59 0 3.17 0 4.76.09s3.17.08 4.67.08 3.08.08 4.67.17h.25l4.25.25h.25l3.84.25c.42 0 .83.08 1.25.08 1.25.08 2.42.25 3.67.34s2.58.25 3.92.41c.42.09.92.09 1.33.17 1.17.17 2.26.25 3.34.42a.79.79 0 01.42.08c41.61 5.75 74.39 21.43 90 43.62a1.67 1.67 0 01.33.5c.08.16.25.33.33.5.34.42.59.92.92 1.33.08.09.08.09.08.17 12.26 1.75 21.69 10.67 21.69 23.94a24.28 24.28 0 01-1.67 8.84 19.15 19.15 0 01-5 7.33l-.67.59a17.58 17.58 0 01-4.76 3 14.42 14.42 0 01-5.33 1.09 13 13 0 01-5.34-1.09 14.36 14.36 0 01-4.75-3l-2.59-2.34-11 40.12a37.48 37.48 0 01-6.75 13.51 28.21 28.21 0 01-11.1 8.51 24 24 0 01-9.09 1.83H22.23a24 24 0 01-9.09-1.83 27.68 27.68 0 01-7.84-5 36 36 0 01-10.09-17l-11-40.12-2.59 2.34a17.52 17.52 0 01-4.75 3 15.2 15.2 0 01-5.34 1.09 13.33 13.33 0 01-5.34-1.09 15.46 15.46 0 01-4.75-3l-.67-.59a19.15 19.15 0 01-5-7.33 24.28 24.28 0 01-1.67-8.84c0-13.27 9.43-22.19 21.69-23.94-.09.08-.09.17-.17.25.08-.08.08-.17.17-.25a6.38 6.38 0 01.66-1 9.43 9.43 0 01.84-1.25c.58-.84 1.16-1.59 1.75-2.42s1.25-1.59 1.92-2.34c.04.15.04-.02.15-.1zm213.34 44a5.37 5.37 0 001.34-3.42 5 5 0 00-1.79-3.8l-2-1.83a15.74 15.74 0 00-4.75-3 15.41 15.41 0 00-5.34-1.08 13 13 0 00-5.34 1.08 15.3 15.3 0 00-4.75 3L166 928a7.9 7.9 0 01-1.67 1.08 3.28 3.28 0 01-1.5.34 3.85 3.85 0 01-1.58-.34 4.57 4.57 0 01-1.67-1.08l-5.84-5.25a15.74 15.74 0 00-4.75-3 14.71 14.71 0 00-5.34-1.08 13 13 0 00-5.34 1.08 15.19 15.19 0 00-4.75 3l-5.83 5.25a7.9 7.9 0 01-1.67 1.08 3.61 3.61 0 01-1.58.34 3.93 3.93 0 01-1.59-.34 5.41 5.41 0 01-1.66-1.08l-5.84-5.25a15.67 15.67 0 00-4.76-3 14.61 14.61 0 00-5.33-1.08 13 13 0 00-5.34 1.08 14.37 14.37 0 00-4.76 3L89.37 928a8.16 8.16 0 01-1.67 1.08 3.28 3.28 0 01-1.5.34 3.93 3.93 0 01-1.59-.34 5.56 5.56 0 01-1.67-1.08l-5.83-5.25a15.79 15.79 0 00-4.76-3 14.61 14.61 0 00-5.35-1.07 13 13 0 00-5.34 1.08 14.37 14.37 0 00-4.76 3L51.09 928a8.16 8.16 0 01-1.67 1.08 3.28 3.28 0 01-1.5.34 3.93 3.93 0 01-1.59-.34 4.74 4.74 0 01-1.67-1.08l-5.83-5.25a15.79 15.79 0 00-4.76-3 14.66 14.66 0 00-5.34-1.08 13 13 0 00-5.33 1.08 15.23 15.23 0 00-4.76 3l-2 1.83a5.24 5.24 0 00-.42 7.26 5.18 5.18 0 007.34.41l1.92-1.75a8.16 8.16 0 011.67-1.08 4.79 4.79 0 011.58-.34 3.87 3.87 0 011.59.34 8.16 8.16 0 011.68 1.1l5.84 5.26a17.52 17.52 0 004.75 3 15.18 15.18 0 005.34 1.08 13 13 0 005.33-1.08 15.38 15.38 0 004.76-3l5.84-5.26a7.86 7.86 0 011.66-1.08 4.84 4.84 0 011.48-.34 3.85 3.85 0 011.58.34 6.47 6.47 0 011.67 1.08l5.84 5.26a17.52 17.52 0 004.75 3 14.46 14.46 0 005.34 1.08 13 13 0 005.34-1.08 15.46 15.46 0 004.75-3l5.84-5.26a7.86 7.86 0 011.66-1.08 5.4 5.4 0 011.59-.34 3.85 3.85 0 011.58.34 7.9 7.9 0 011.67 1.08l5.84 5.26a17.68 17.68 0 004.75 3 14.5 14.5 0 005.34 1.08 13 13 0 005.34-1.08 14.36 14.36 0 004.75-3l5.84-5.26a7.9 7.9 0 011.67-1.08 4.79 4.79 0 011.58-.34 3.93 3.93 0 011.59.34 8.16 8.16 0 011.67 1.08l5.83 5.26a17.73 17.73 0 004.76 3 15.14 15.14 0 005.34 1.08 13.23 13.23 0 005.33-1.08 15.38 15.38 0 004.76-3l5.83-5.26a8.16 8.16 0 011.67-1.08 4.79 4.79 0 011.5-.34 3.93 3.93 0 011.59.34 6.47 6.47 0 011.67 1.08l1.91 1.75a5 5 0 007.28-.41zM157 891.41a5.33 5.33 0 00-4.83-5.59c-15-1.09-30.69-1.59-46.71-1.59s-31.69.5-46.7 1.59a5.11 5.11 0 00-4.76 5.59 5.19 5.19 0 005.5 4.83c14.76-1 30.19-1.58 46-1.58s31.19.5 46 1.58a5.23 5.23 0 005.5-4.83zm-142.61 87.9a5.16 5.16 0 002.34-6.92 56 56 0 01-4.59-14.76A5.18 5.18 0 102 959.54 71.77 71.77 0 007.38 977a5.34 5.34 0 007.01 2.31zm129.69-154.54c1.33 8.34-3.59 12.68-13 11.84H131a239.75 239.75 0 00-25.52-.91 245.83 245.83 0 00-25.1 1c-8.26 0-14.93-6.26-14.93-14.1v-.08a23.36 23.36 0 014.5-13.85 23.81 23.81 0 0111.35-8.34 24.39 24.39 0 0010.7-8.75 24 24 0 003-6.42 23.61 23.61 0 001.08-7.26 5.34 5.34 0 0110.68 0 13.2 13.2 0 003 8.34 13 13 0 007.59 4.42c4.75.92 8 2.5 10.76 5.5a17.45 17.45 0 014.58 11.76 16.76 16.76 0 01-1.41 6.76 16.16 16.16 0 019.42 4.5 11.2 11.2 0 013.34 5.59z" transform="translate(45.91 -772.56)" id="btight-bounds"/><g class="bcls-2"><g class="bcls-2"><path class="bcls-1" d="M323 902.63q-3.6 17.57-10.05 53-1.51 12.26-3 24.4-3.27 15.41-12 15.4-5.51 0-8.69-5.1a19 19 0 01-2.72-10.3q0-17.56 5.51-42.83 8.21-37.85 8.85-42 2.31-16.71 4.71-33.4 3.59-23 7.77-30.64t10.57-7.64q7.26 0 10.69 10 3.19 9.44 6.86 38.61 3.51 28.3 10.45 60.94 9.09-32.21 16.91-70.7l4.47-24.94q4.29-15.43 13.3-15.43 8.7 0 12.92 18 1.76 7.27 3.75 27.11 4.62 46.2 11.65 79.16 7.1 33.51 7.1 36.44a15.83 15.83 0 01-3.75 10.73 10.46 10.46 0 01-7.9 3.9q-8.7 0-12.92-16.91L393 954.14q-3.83-19.53-8.29-56.06-3.6 14.52-11.89 45.65L368 963.68a135.34 135.34 0 01-6.14 19.41q-4.23 10.08-11.8 10.08t-11.49-12L334.14 961q-6.21-27.79-11.14-58.37zm146.41 90.65q-19.07 0-31.18-12.36-13.41-13.67-13.4-38.49 0-27.43 10.6-46.42 11.81-21 31.83-21 13.88 0 23.05 6.07 12 8 12.05 24.94 0 11.93-9.81 21.15-4.47 4.23-17.95 12.36l-26.88 16.15a25.21 25.21 0 009.25 8.46 26.58 26.58 0 0012.44 2.82q10.69 0 18.11-6 6.62-5.31 10.61-5.32 8.3 0 8.3 11 0 12.36-13.33 20.17a46.37 46.37 0 01-23.69 6.47zm-2.15-92.06q-7.42 0-12.68 6.72t-8.46 20.17q9-5.31 17.95-10.52a125.74 125.74 0 0017.15-12.25q-5.34-4.12-13.96-4.12zm71.46.22q.56 5.52 1.28 16.48 1.18 43.8 1.19 61.27a15.67 15.67 0 01-3.19 10.08 9.82 9.82 0 01-8 4 9.69 9.69 0 01-7.93-4 15.82 15.82 0 01-3.15-10.08q0-16.82-1.12-60.4-.08-4-1-13.23-.79-8.46-.79-13.12 0-19 21.61-19 4.47 0 13.52.54t13.52.54c1.23 0 3.05-.12 5.47-.38s4.24-.37 5.46-.37a9.57 9.57 0 017.9 4.22 16.76 16.76 0 012.95 10q0 10-7.58 13.12-3.9 1.64-13.64 1.63-4.23 0-13.24-.65-8.72-.66-13.26-.65zm119.64 92.82q-3.68 0-11.65-9.65a92.54 92.54 0 01-12.92 7.21 24.73 24.73 0 01-9.49 2.44q-19.23 0-28.84-14t-9.61-41.86q0-26.13 14.2-44.73t34-18.59q7.58 0 17.55 5.79 12 7 12 16.22a12.4 12.4 0 01-1.83 6.76 93.63 93.63 0 00-1.24 10.79q-.43 6.5-.44 15.19 0 20.5 2.15 29.53.24 1 3.67 11.16 3.12 9.24 3.11 10.52a13.93 13.93 0 01-3.23 9.45 9.63 9.63 0 01-7.43 3.77zm-19.79-73.2q0-3.46.36-8t1.08-10a15.45 15.45 0 00-2.83-1.57 6.1 6.1 0 00-2.12-.49q-10.84 0-19 11.55a45.27 45.27 0 00-8.14 26.73q0 14.54 3.83 21.85t11.49 7.32a20.61 20.61 0 009.37-2.22 28.66 28.66 0 008.34-6.56q-2.38-25.81-2.38-38.61z" transform="translate(45.91 -772.56)"/></g><g class="bcls-2"><path class="bcls-1" d="M808.91 834.42q0 15.62-17 14.42-.88 15.74-.88 43 0 5.64.84 28.25t.83 39.74q0 3.48.72 10.3c.48 4.56.72 8 .72 10.31a16 16 0 01-3.23 10.24 9.81 9.81 0 01-7.91 4.12q-9.74 0-11-13.34-1.51-15.62-1.51-21.58 0-16.8-.8-38.71t-.8-29.28q0-28.39.8-43.7-3.75.76-18.58.76-19.71 0-38.37-.86.31 4.23.8 12.79 1.28 53.13 1.27 57.47 0 5.1-.48 14.21-.56 10-.63 14.2t0 11c.05 6 .07 9.69.07 11.07q0 12.47-1.19 17-2.31 9.11-10.13 9.11a9.85 9.85 0 01-7.94-4 15.79 15.79 0 01-3.23-10.2q0-25.8.16-34.59.08-4.11.64-13.88.48-8.88.48-13.88 0-3.9-1.28-56.71 0-.33-.88-14.1c-3.19.08-6 .11-8.45.11a9.61 9.61 0 01-7.94-4.12 16.45 16.45 0 01-3.15-10.3q0-14.85 16.75-14.86h3.19c1.38.08 2.37.11 3 .11q6.3 0 18.79.65t18.78.65l66.45.22a9.72 9.72 0 018 4.12 16.31 16.31 0 013.09 10.26z" transform="translate(45.91 -772.56)"/></g><g class="bcls-2"><path class="bcls-1" d="M902.23 980.49a15.74 15.74 0 01-3.19 10 9.78 9.78 0 01-15.87 0 15.74 15.74 0 01-3.19-10q0-6.51.48-19.58t.47-19.57q0-6-.39-12.58-14.85 27.22-26.65 40-10.68 11.51-15.89 18.29t-11.17 6.77a11.85 11.85 0 01-8-3q-4.08-3.69-4.07-10.3 0-28.74-.8-60-.88-32.41-.88-31.77a16.41 16.41 0 013.11-10.25 9.7 9.7 0 018.06-4.06q8.94 0 10.93 12.57.32 1.74.72 21l.79 41.32a310.69 310.69 0 0021.94-31.13q2.72-4.34 19.86-33.29 5.67-9.65 12.6-9.65a9.7 9.7 0 017.9 4.07 15.72 15.72 0 013.19 10q0 11.28.32 33.83t.32 33.83q0 3.91-.32 11.72t-.27 11.78zm50.32 14.2a52.41 52.41 0 01-14.44-2.17l-.07 44.24a16.73 16.73 0 01-3.12 10.41 9.61 9.61 0 01-15.79 0 16.79 16.79 0 01-3.11-10.41q0-5.09.16-40.44.17-26.25 0-42.83-.24-23.43-1.12-40.34-1.2-23.31-1.19-21.36a36.51 36.51 0 013-15.4q3.42-7.27 9.25-7.27a9 9 0 017.5 4.12 16.21 16.21 0 013 9.87l-.08 1.09a41.24 41.24 0 0110.73-6.13 30.7 30.7 0 0110.81-2q18.35 0 26.8 21.15 6.3 15.93 6.3 41.31 0 23.75-10 39.36-10.69 16.81-28.63 16.8zm5.51-89.69a19.38 19.38 0 00-10.21 3.2 44 44 0 00-10.45 9.6q1 22.34 1 44.78a34.8 34.8 0 0014.2 3.15q8.22 0 12.6-7.92 4-7.16 4-19.3 0-14.64-.95-20.28Q965.87 905 958.06 905zm79.67 90q-18 0-30.79-13.56-13.63-14.64-13.64-37.84a94.26 94.26 0 0112.6-48q14.45-25.05 36.77-25.05 42.76 0 42.76 51.4 0 26.25-11.57 47.71-13.71 25.34-36.13 25.34zm4.94-96q-10.61 0-18.5 13.83a60.79 60.79 0 00-7.9 30.74q0 10.18 6 16.59a20.25 20.25 0 0015.44 6.4q10.29 0 17.63-13.88 7.1-13.35 7.1-30.8 0-13.56-4.11-18.22t-15.66-4.61zm71.22 2.44q.57 5.52 1.28 16.48 1.2 43.8 1.2 61.27a15.73 15.73 0 01-3.19 10.08 9.82 9.82 0 01-8 4 9.71 9.71 0 01-7.94-4 15.82 15.82 0 01-3.15-10.08q0-16.82-1.11-60.4-.09-4-1-13.23-.8-8.46-.8-13.12 0-19 21.62-19 4.46 0 13.52.54t13.52.54c1.22 0 3-.12 5.46-.38s4.24-.37 5.47-.37a9.55 9.55 0 017.89 4.22 16.69 16.69 0 012.95 10q0 10-7.57 13.12-3.91 1.64-13.64 1.63-4.23 0-13.24-.65-8.72-.66-13.27-.65zm137.43 79.05a15.8 15.8 0 01-3.19 10 9.79 9.79 0 01-15.88 0 15.8 15.8 0 01-3.19-10q0-6.51.48-19.58t.48-19.57q0-6-.4-12.58-14.83 27.22-26.64 40-10.7 11.49-15.87 18.27t-11.17 6.77a11.88 11.88 0 01-8-3q-4.07-3.69-4.06-10.3 0-28.74-.8-60-.88-32.41-.88-31.77a16.41 16.41 0 013.11-10.25 9.7 9.7 0 018.06-4.06q8.92 0 10.93 12.57.32 1.74.71 21l.8 41.32a310.69 310.69 0 0021.94-31.13q2.7-4.34 19.86-33.29 5.65-9.65 12.6-9.65a9.7 9.7 0 017.9 4.07 15.78 15.78 0 013.19 10q0 11.28.32 33.83t.32 33.83q0 3.91-.32 11.72t-.3 11.8z" transform="translate(45.91 -772.56)"/></g></g></svg><svg fill="#e63946" viewBox="0 0 12 12" id="plus" xmlns="http://www.w3.org/2000/svg"><path d="M10.665 5.131H7.202V1.668c0-1.335-2.07-1.335-2.07 0v3.463H1.667c-1.335 0-1.335 2.071 0 2.071H5.13v3.463c0 1.336 2.071 1.336 2.071 0V7.202h3.463c1.336 0 1.336-2.07 0-2.07z"/></svg><svg data-name="Слой 1" viewBox="0 0 30 30" id="telegram" xmlns="http://www.w3.org/2000/svg"><path class="dcls-1" d="M28 0H2a2 2 0 00-2 2v26a2 2 0 002 2h26a2 2 0 002-2V2a2 2 0 00-2-2zm-1.56 7.23L22.97 23.4c-.26 1.14-1 1.43-1.92.89l-5.29-3.85-2.55 2.42a1.33 1.33 0 01-1.06.52l.38-5.32 9.8-8.75c.43-.38-.09-.59-.66-.21L9.55 16.64l-5.21-1.62c-1.14-.35-1.16-1.12.23-1.66l20.4-7.76c.95-.37 1.78.19 1.47 1.63z"/></svg></svg>